# xmcd CD database file
#
# Track frame offsets:
#	150
#	48553
#	75420
#	110538
#	125162
#	167215
#	188206
#	215544
#	237850
#	286422
#	291473
#
# Disc length: 4539 seconds
#
# Revision: 2
# Processed by: cddbd v1.5.2PL0 Copyright (c) Steve Scherf et al.
# Submitted via: cdripper 1,0,33,916
#
DISCID=a911b90b
DTITLE=Monk Thelonious - Ask me now - CD 2
DYEAR=1900
DGENRE=Jazz
TTITLE0=Swing spring
TTITLE1=Caravan
TTITLE2=Brilliant corners
TTITLE3=I should care
TTITLE4=Functional
TTITLE5=Crepuscule with Nellie
TTITLE6=Coming on the Hudson
TTITLE7=Let's  cool one
TTITLE8=Misterioso
TTITLE9=Epistrophy
TTITLE10=In walked bud - Epistrophy
EXTD=
EXTT0=
EXTT1=
EXTT2=
EXTT3=
EXTT4=
EXTT5=
EXTT6=
EXTT7=
EXTT8=
EXTT9=
EXTT10=
PLAYORDER=
